<svg xmlns="http://www.w3.org/2000/svg" version="1.1" xmlns:xlink="http://www.w3.org/1999/xlink" xmlns:svgjs="http://svgjs.dev/svgjs" width="1000" height="1000" viewBox="0 0 1000 1000"><rect width="1000" height="1000" fill="#0b022d"></rect><g transform="matrix(0.7,0,0,0.7,149.57575757575756,362.67208128421646)"><svg viewBox="0 0 396 156" data-background-color="#0b022d" preserveAspectRatio="xMidYMid meet" height="393" width="1000" xmlns="http://www.w3.org/2000/svg" xmlns:xlink="http://www.w3.org/1999/xlink"><g id="tight-bounds" transform="matrix(1,0,0,1,0.2400000000000091,-0.12593486127863684)"><svg viewBox="0 0 395.52 156.25186972255727" height="156.25186972255727" width="395.52"><g><svg viewBox="0 0 395.52 156.25186972255727" height="156.25186972255727" width="395.52"><g><svg viewBox="0 0 395.52 156.25186972255727" height="156.25186972255727" width="395.52"><g id="textblocktransform"><svg viewBox="0 0 395.52 156.25186972255727" height="156.25186972255727" width="395.52" id="textblock"><g><svg viewBox="0 0 395.52 156.25186972255727" height="156.25186972255727" width="395.52"><g transform="matrix(1,0,0,1,0,0)"><svg width="395.52" viewBox="-10.8 -32 82.89999999999999 32.75" height="156.25186972255727" data-palette-color="#43b0df"><path d="M9.75-16.85L9.6-15.85Q9.5-15.45 9.4-14.75L9.4-14.75-10.25-16.85 9.75-16.85ZM-10.8-12.05L9.05-12.05Q8.9-10.9 8.9-9.95L8.9-9.95-10.8-12.05ZM-9.05-21.65L10.95-21.65 10.35-19.6-9.05-21.65ZM-10.15-7.25L8.95-7.25Q9.15-5.85 9.3-5.15L9.3-5.15-10.15-7.25ZM-6.7-26.45L13-26.45Q12.3-25.15 12-24.45L12-24.45-6.7-26.45ZM-5.35-2.4L10.45-2.4Q11.1-1.25 11.95-0.55L11.95-0.55-5.35-2.4ZM0.2-31.25L17.75-31.25Q16.3-30.35 15.5-29.6L15.5-29.6 0.2-31.25ZM22.15 0.75L22.15 0.75Q15.85 0.75 13.13-1.7 10.4-4.15 10.4-9.25L10.4-9.25Q10.4-11.4 11.1-15.6L11.1-15.6Q12.6-24.2 16.28-28.1 19.95-32 27.9-32L27.9-32Q29.75-32 32.13-31.63 34.5-31.25 35.6-30.7L35.6-30.7 32.8-23.05Q29.85-23.75 27.28-23.75 24.7-23.75 23.6-23.25 22.5-22.75 22.25-21.25L22.25-21.25 19.95-8.15Q21.75-7.75 23.65-7.75L23.65-7.75Q27.7-7.75 31.05-8.95L31.05-8.95 30.25-0.55Q27.05 0.75 22.15 0.75ZM49.85-31.25L65.25-31.25Q68.85-31.25 70.47-30 72.1-28.75 72.1-26.15L72.1-26.15Q72.1-22.35 70.42-19.9 68.75-17.45 66.35-16.85L66.35-16.85 66.3-16.55Q70.8-15.7 70.8-10.6L70.8-10.6Q70.8-6.1 68.35-3.05 65.9 0 61.45 0L61.45 0 44.35 0 49.85-31.25ZM59.75-12.45L59.75-12.45 56-12.45 55.1-7.35 58.8-7.35Q60.05-7.35 60.7-8.35 61.35-9.35 61.35-10.9 61.35-12.45 59.75-12.45ZM61.15-24.4L61.15-24.4 58.15-24.4 57.3-19.75 60.25-19.75Q62.55-19.75 62.55-23L62.55-23Q62.55-24.4 61.15-24.4ZM43.25-2.4L42.85-0.15 21.65-2.4 43.25-2.4ZM44.95-12.05L44.55-9.8 23.35-12.05 44.95-12.05ZM45.8-16.85L45.4-14.6 24.2-16.85 45.8-16.85ZM46.65-21.65L46.25-19.4 25.05-21.65 46.65-21.65ZM47.45-26.45L47.1-24.2 25.9-26.45 47.45-26.45ZM44.1-7.25L43.7-5 22.5-7.25 44.1-7.25ZM48.3-31.25L47.9-29 26.75-31.25 48.3-31.25Z" opacity="1" transform="matrix(1,0,0,1,0,0)" fill="#43b0df" class="wordmark-text-0" data-fill-palette-color="primary" id="text-0"></path></svg></g></svg></g></svg></g></svg></g></svg></g><defs></defs></svg><rect width="395.52" height="156.25186972255727" fill="none" stroke="none" visibility="hidden"></rect></g></svg></g></svg>